<svg width="131" height="131" viewBox="0 0 131 131" fill="none" xmlns="http://www.w3.org/2000/svg">
<path d="M39.3906 88.0518C40.5 88.0518 41.6152 89.1617 41.6152 90.2764V109.442C41.6152 110.552 40.5 111.667 39.3906 111.667H20.2246C19.1152 111.667 18 110.557 18 109.442V90.2764C18 89.167 19.11 88.0518 20.2246 88.0518H39.3906ZM74.3906 88.0518C75.5 88.0518 76.6152 89.1617 76.6152 90.2764V109.442C76.8913 110.552 75.7813 111.667 74.3906 111.667H55.2246C54.1152 111.667 53 110.557 53 109.442V90.2764C53 89.167 54.11 88.0518 55.2246 88.0518H74.3906ZM109.667 88.0518C111.058 88.0518 111.891 88.8857 111.891 90.2764V109.442C111.891 110.557 110.776 111.667 109.667 111.667H90.5C89.3855 111.667 88.2764 110.552 88.2764 109.442V90.2764C88.2764 89.1618 89.3907 88.0519 90.5 88.0518H109.667ZM107.442 93.0576C106.333 91.9483 104.942 91.9482 103.833 93.0576L101.058 95.833C101.058 96.109 100.776 96.109 100.5 95.833L97.7246 93.0576C96.6153 91.9483 95.2246 91.9483 94.1152 93.0576C93.0059 94.167 93.0059 95.5576 94.1152 96.667L96.8906 99.4424C97.1667 99.4424 97.1667 99.724 96.8906 100L94.1152 102.775C93.0059 103.885 93.0059 105.275 94.1152 106.385C94.3912 106.942 95.224 107.219 95.7812 107.219C96.3385 107.219 96.8909 106.942 97.4482 106.385L100.225 103.609C100.225 103.333 100.505 103.333 100.781 103.609L103.558 106.385C103.834 106.942 104.666 107.219 105.224 107.219C105.781 107.219 106.333 106.942 106.891 106.385C108 105.275 108 103.885 106.891 102.775L104.115 100C103.834 100 103.834 99.7184 104.667 99.4424L107.442 96.667C108.552 95.5577 108.552 94.167 107.442 93.0576ZM39.3906 53.6045C40.5 53.6045 41.6152 54.7135 41.6152 55.8281V74.9951C41.6149 76.1096 40.4999 77.2188 39.3906 77.2188H20.2246C19.1154 77.2188 18.0003 76.1096 18 74.9951V55.8281C18 54.7188 19.11 53.6045 20.2246 53.6045H39.3906ZM109.667 53.6094C110.776 53.6094 111.89 54.7185 111.891 55.833V75C111.891 76.1093 111.058 77.2187 109.667 77.2188H90.5C89.3909 77.2186 88.2767 76.1095 88.2764 74.9951V55.8281C88.2764 54.7188 89.3855 53.6047 90.5 53.6045L109.667 53.6094ZM74.3906 53.333C75.7813 53.333 76.8913 54.443 76.6152 55.5576V74.7236C76.6152 75.8383 75.5 76.9482 74.3906 76.9482H55.2246C54.11 76.9482 53 75.833 53 74.7236V55.5576C53 54.443 54.1152 53.333 55.2246 53.333H74.3906ZM72.1611 58.6094C71.0518 57.5003 69.661 57.5001 68.5518 58.6094L65.7764 61.3857C65.7762 61.6615 65.4947 61.6617 65.2188 61.3857L62.4434 58.6094C61.3341 57.5001 59.9433 57.5003 58.834 58.6094C57.7246 59.7187 57.7246 61.1094 58.834 62.2188L61.6094 64.9951C61.8854 64.9951 61.8853 65.2757 61.6094 65.5518L58.834 68.3281C57.7246 69.4375 57.7246 70.8281 58.834 71.9375C59.11 72.4946 59.9428 72.7704 60.5 72.7705C61.0573 72.7705 61.6097 72.4948 62.167 71.9375L64.9434 69.1611C64.9436 68.8855 65.2242 68.8855 65.5 69.1611L68.2764 71.9375C68.5524 72.4947 69.3861 72.7705 69.9434 72.7705C70.5005 72.7704 71.0523 72.4946 71.6094 71.9375C72.7187 70.8282 72.7187 69.4375 71.6094 68.3281L68.834 65.5518C68.5579 65.5518 68.5576 65.0003 69.3857 64.9951L72.1611 62.2188C73.2705 61.1094 73.2705 59.7187 72.1611 58.6094ZM39.3906 18.8857C40.5 18.8857 41.6152 20 41.6152 21.1094V40.2764C41.615 41.3909 40.4999 42.5 39.3906 42.5H20.2246C19.1101 42.5 18.0002 41.3856 18 40.2764V21.1094C18 20 18.8339 18.8857 20.2246 18.8857H39.3906ZM74.3906 18.8857C75.5 18.8857 76.6152 19.9947 76.6152 21.1094V40.2764C76.891 41.6668 75.7812 42.5 74.3906 42.5H55.2246C54.1154 42.5 53.0002 41.3909 53 40.2764V21.1094C53 20 54.11 18.8857 55.2246 18.8857H74.3906ZM109.667 18.8857C110.776 18.8859 111.891 19.9948 111.891 21.1094V40.2764C111.89 41.6668 111.057 42.5 109.667 42.5H90.5C89.3908 42.4998 88.2766 41.3908 88.2764 40.2764L88.2812 21.1094C88.2812 20 89.3912 18.8857 90.5059 18.8857H109.667ZM36.8857 24.167C35.7764 23.0576 34.3857 23.0576 33.2764 24.167L30.5 26.9424C30.5 27.2184 30.2194 27.2184 29.9434 26.9424L27.167 24.167C26.0577 23.0576 24.667 23.0577 23.5576 24.167C22.4484 25.2763 22.4483 26.667 23.5576 27.7764L26.334 30.5518C26.6096 30.552 26.6097 30.8335 26.334 31.1094L23.5576 33.8857C22.4484 34.995 22.4483 36.3858 23.5576 37.4951C23.8338 38.0522 24.6674 38.3281 25.2246 38.3281C25.7817 38.328 26.3336 38.052 26.8906 37.4951L29.667 34.7188C29.667 34.4427 29.9486 34.4427 30.2246 34.7188L33 37.4951C33.2761 38.0522 34.1098 38.3281 34.667 38.3281C35.2243 38.3281 35.7767 38.0524 36.334 37.4951C37.4432 36.3859 37.443 34.995 36.334 33.8857L33.5576 31.1094C33.2816 30.8334 33.2815 30.5518 34.1094 30.5518L36.8857 27.7764C37.995 26.6671 37.9949 25.2763 36.8857 24.167Z" fill="url(#paint0_linear_22_36)"/>
<path d="M122.219 130.552H8.33333C3.60933 130.552 0 126.661 0 122.219V8.33333C0 3.60933 3.89067 0 8.33333 0H121.943C126.667 0 130.276 3.89067 130.276 8.33333V121.943C130.552 126.667 126.667 130.552 122.219 130.552ZM8.33333 12.2187V118.052C8.33333 120.276 10 121.943 12.224 121.943H116.667C119.724 121.943 121.943 119.443 121.943 116.667V12.5C121.943 10.276 120.276 8.60933 118.052 8.60933L12.5 8.33329C10.276 8.33329 8.33333 9.99987 8.33333 12.2187Z" fill="url(#paint1_linear_22_36)"/>
<g opacity="0.24">
<path d="M74.4427 42.5H55.276C54.1666 42.5 53.052 41.3906 53.052 40.276V21.1093C53.052 20 54.1614 18.8853 55.276 18.8853H74.4427C75.552 18.8853 76.6667 19.9947 76.6667 21.1093V40.276C76.9427 41.6667 75.8333 42.5 74.4427 42.5Z" fill="#FFEE00"/>
<path d="M109.719 42.5H90.552C89.4426 42.5 88.328 41.3906 88.328 40.276L88.3332 21.1093C88.3332 20 89.4426 18.8853 90.5572 18.8853H109.719C110.828 18.8853 111.943 19.9947 111.943 21.1093V40.276C111.943 41.6667 111.109 42.5 109.719 42.5Z" fill="#F86B00"/>
<path d="M39.4427 77.2187H20.276C19.1666 77.2187 18.052 76.1093 18.052 74.9947V55.828C18.052 54.7186 19.1614 53.604 20.276 53.604H39.4427C40.552 53.604 41.6667 54.7134 41.6667 55.828V74.9947C41.6667 76.1093 40.5521 77.2187 39.4427 77.2187Z" fill="#FF009D"/>
<path d="M109.719 77.2187H90.552C89.4426 77.2187 88.328 76.1093 88.328 74.9947V55.828C88.328 54.7186 89.4374 53.604 90.552 53.604L109.719 53.6092C110.828 53.6092 111.943 54.7186 111.943 55.8332V74.9999C111.943 76.1093 111.109 77.2187 109.719 77.2187Z" fill="#0066FF"/>
<path d="M39.4427 111.667H20.276C19.1666 111.667 18.052 110.557 18.052 109.443V90.276C18.052 89.1666 19.1614 88.052 20.276 88.052H39.4427C40.552 88.052 41.6667 89.1614 41.6667 90.276V109.443C41.6667 110.552 40.5521 111.667 39.4427 111.667Z" fill="#00FBFF"/>
<path d="M74.4427 111.667H55.276C54.1666 111.667 53.052 110.557 53.052 109.443V90.276C53.052 89.1666 54.1614 88.052 55.276 88.052H74.4427C75.552 88.052 76.6667 89.1614 76.6667 90.276V109.443C76.9427 110.552 75.8333 111.667 74.4427 111.667Z" fill="#0ED000"/>
<path d="M39.4427 18.8853H20.276C18.8853 18.8853 18.052 19.9999 18.052 21.1093V40.276C18.052 41.3854 19.1614 42.5 20.276 42.5H39.4427C40.552 42.5 41.6667 41.3906 41.6667 40.276V21.1093C41.6667 20 40.5521 18.8853 39.4427 18.8853ZM33.6093 31.1093L36.3853 33.8853C37.4947 34.9947 37.4947 36.3853 36.3853 37.4947C35.828 38.052 35.276 38.328 34.7187 38.328C34.1614 38.328 33.328 38.052 33.052 37.4947L30.276 34.7187C30 34.4426 29.7187 34.4426 29.7187 34.7187L26.9427 37.4947C26.3854 38.052 25.8333 38.328 25.276 38.328C24.7187 38.328 23.8854 38.052 23.6094 37.4947C22.5 36.3853 22.5 34.9947 23.6094 33.8853L26.3854 31.1093C26.6614 30.8333 26.6614 30.552 26.3854 30.552L23.6094 27.776C22.5 26.6667 22.5 25.276 23.6094 24.1667C24.7187 23.0574 26.1094 23.0573 27.2187 24.1667L29.9947 26.9427C30.2707 27.2187 30.552 27.2187 30.552 26.9427L33.328 24.1667C34.4374 23.0573 35.828 23.0573 36.9373 24.1667C38.0467 25.2761 38.0467 26.6667 36.9373 27.776L34.1613 30.552C33.3332 30.552 33.3333 30.8333 33.6093 31.1093Z" fill="#55FF00"/>
<path d="M74.4427 53.3333H55.276C54.1666 53.3333 53.052 54.4427 53.052 55.5573V74.724C53.052 75.8334 54.1614 76.948 55.276 76.948H74.4427C75.552 76.948 76.6667 75.8386 76.6667 74.724V55.5573C76.9427 54.4427 75.8333 53.3333 74.4427 53.3333ZM68.8853 65.5521L71.6613 68.3281C72.7707 69.4375 72.7707 70.8281 71.6613 71.9375C71.104 72.4948 70.552 72.7708 69.9947 72.7708C69.4374 72.7708 68.604 72.4948 68.328 71.9375L65.552 69.1615C65.276 68.8854 64.9947 68.8854 64.9947 69.1615L62.2187 71.9375C61.6614 72.4948 61.1093 72.7708 60.552 72.7708C59.9947 72.7708 59.1614 72.4948 58.8854 71.9375C57.776 70.8281 57.776 69.4375 58.8854 68.3281L61.6614 65.5521C61.9374 65.2761 61.9374 64.9948 61.6614 64.9948L58.8854 62.2188C57.776 61.1095 57.776 59.7188 58.8854 58.6095C59.9947 57.5002 61.3854 57.5001 62.4947 58.6095L65.2707 61.3855C65.5467 61.6616 65.828 61.6616 65.828 61.3855L68.604 58.6095C69.7134 57.5001 71.104 57.5001 72.2133 58.6095C73.3227 59.7189 73.3227 61.1095 72.2133 62.2188L69.4373 64.9948C68.6092 65.0001 68.6093 65.5521 68.8853 65.5521Z" fill="#8C19FF"/>
<path d="M109.719 88.052H90.552C89.4426 88.052 88.328 89.1614 88.328 90.276V109.443C88.328 110.552 89.4374 111.667 90.552 111.667H109.719C110.828 111.667 111.943 110.557 111.943 109.443V90.276C111.943 88.8853 111.109 88.052 109.719 88.052ZM104.167 99.9999L106.943 102.776C108.052 103.885 108.052 105.276 106.943 106.385C106.385 106.942 105.833 107.219 105.276 107.219C104.719 107.219 103.885 106.942 103.609 106.385L100.833 103.609C100.557 103.333 100.276 103.333 100.276 103.609L97.4999 106.385C96.9426 106.942 96.3905 107.219 95.8332 107.219C95.2759 107.219 94.4426 106.942 94.1666 106.385C93.0572 105.276 93.0572 103.885 94.1666 102.776L96.9426 99.9999C97.2186 99.7238 97.2186 99.4426 96.9426 99.4426L94.1666 96.6666C93.0572 95.5572 93.0572 94.1666 94.1666 93.0572C95.2759 91.9479 96.6666 91.9479 97.7759 93.0572L100.552 95.8332C100.828 96.1093 101.109 96.1093 101.109 95.8332L103.885 93.0572C104.995 91.9479 106.385 91.9479 107.495 93.0572C108.604 94.1666 108.604 95.5572 107.495 96.6666L104.719 99.4426C103.885 99.7186 103.885 99.9999 104.167 99.9999Z" fill="#B81C33"/>
</g>
<defs>
<linearGradient id="paint0_linear_22_36" x1="19.5" y1="16.5" x2="84" y2="95.5" gradientUnits="userSpaceOnUse">
<stop stop-color="#F01616"/>
<stop offset="1" stop-color="#6F026F"/>
</linearGradient>
<linearGradient id="paint1_linear_22_36" x1="65.1449" y1="0" x2="97.5" y2="133.5" gradientUnits="userSpaceOnUse">
<stop stop-color="#F01616"/>
<stop offset="1" stop-color="#6E0271"/>
</linearGradient>
</defs>
</svg>
